<svg xmlns="http://www.w3.org/2000/svg" xmlns:xlink="http://www.w3.org/1999/xlink" width="500" zoomAndPan="magnify" viewBox="0 0 375 374.999991" height="500" preserveAspectRatio="xMidYMid meet" version="1.0"><defs><g/><clipPath id="310dba803f"><path d="M 0 113.34375 L 375 113.34375 L 375 261.65625 L 0 261.65625 Z M 0 113.34375 " clip-rule="nonzero"/></clipPath><clipPath id="264147517e"><path d="M 38.25 113.34375 L 336.75 113.34375 C 357.875 113.34375 375 130.46875 375 151.59375 L 375 223.40625 C 375 244.53125 357.875 261.65625 336.75 261.65625 L 38.25 261.65625 C 17.125 261.65625 0 244.53125 0 223.40625 L 0 151.59375 C 0 130.46875 17.125 113.34375 38.25 113.34375 Z M 38.25 113.34375 " clip-rule="nonzero"/></clipPath><clipPath id="0bbf1c778b"><path d="M 0 0.34375 L 375 0.34375 L 375 148.65625 L 0 148.65625 Z M 0 0.34375 " clip-rule="nonzero"/></clipPath><clipPath id="163dd36e47"><path d="M 38.25 0.34375 L 336.75 0.34375 C 357.875 0.34375 375 17.46875 375 38.59375 L 375 110.40625 C 375 131.53125 357.875 148.65625 336.75 148.65625 L 38.25 148.65625 C 17.125 148.65625 0 131.53125 0 110.40625 L 0 38.59375 C 0 17.46875 17.125 0.34375 38.25 0.34375 Z M 38.25 0.34375 " clip-rule="nonzero"/></clipPath><clipPath id="f76ed08a3d"><rect x="0" width="375" y="0" height="149"/></clipPath><clipPath id="d427905dc1"><path d="M 36.609375 140.304688 L 131 140.304688 L 131 234.804688 L 36.609375 234.804688 Z M 36.609375 140.304688 " clip-rule="nonzero"/></clipPath><clipPath id="fdaa8107b6"><path d="M 134 221 L 147.609375 221 L 147.609375 234.804688 L 134 234.804688 Z M 134 221 " clip-rule="nonzero"/></clipPath><clipPath id="4c5550ac81"><rect x="0" width="199" y="0" height="67"/></clipPath></defs><g clip-path="url(#310dba803f)"><g clip-path="url(#264147517e)"><g transform="matrix(1, 0, 0, 1, 0, 113)"><g clip-path="url(#f76ed08a3d)"><g clip-path="url(#0bbf1c778b)"><g clip-path="url(#163dd36e47)"><path fill="#469fff" d="M 0 0.34375 L 374.835938 0.34375 L 374.835938 148.65625 L 0 148.65625 Z M 0 0.34375 " fill-opacity="1" fill-rule="nonzero"/></g></g></g></g></g></g><path fill="#000000" d="M 142.125 228.753906 C 143.085938 228.761719 143.871094 227.996094 143.882812 227.035156 C 143.882812 226.996094 143.882812 226.957031 143.882812 226.917969 C 143.882812 225.617188 143.09375 224.992188 141.480469 224.992188 L 138.875 224.992188 L 138.875 231.804688 L 139.855469 231.804688 L 139.855469 228.832031 L 141.058594 228.832031 L 141.085938 228.871094 L 142.957031 231.800781 L 144.003906 231.800781 L 141.992188 228.761719 L 142.125 228.746094 Z M 140.992188 228.070312 L 139.855469 228.070312 L 139.855469 225.765625 L 141.300781 225.765625 C 142.042969 225.765625 142.890625 225.890625 142.890625 226.859375 C 142.890625 227.976562 142.03125 228.070312 140.988281 228.070312 " fill-opacity="1" fill-rule="nonzero"/><g clip-path="url(#d427905dc1)"><path fill="#000000" d="M 116.550781 220.214844 L 102.648438 220.214844 L 102.648438 198.480469 C 102.648438 193.296875 102.554688 186.625 95.417969 186.625 C 88.28125 186.625 87.066406 192.273438 87.066406 198.105469 L 87.066406 220.214844 L 73.164062 220.214844 L 73.164062 175.515625 L 86.511719 175.515625 L 86.511719 181.625 L 86.695312 181.625 C 89.417969 176.980469 94.480469 174.203125 99.867188 174.40625 C 113.957031 174.40625 116.554688 183.664062 116.554688 195.699219 L 116.554688 220.21875 Z M 57.484375 169.40625 C 53.023438 169.40625 49.417969 165.804688 49.414062 161.351562 C 49.40625 156.902344 53.019531 153.300781 57.476562 153.292969 C 61.9375 153.292969 65.542969 156.898438 65.550781 161.347656 C 65.554688 165.796875 61.941406 169.402344 57.484375 169.40625 M 64.433594 220.214844 L 50.519531 220.214844 L 50.519531 175.515625 L 64.433594 175.515625 Z M 123.480469 140.40625 L 43.535156 140.40625 C 39.753906 140.367188 36.652344 143.386719 36.609375 147.160156 L 36.609375 227.316406 C 36.652344 231.089844 39.753906 234.113281 43.535156 234.074219 L 123.484375 234.074219 C 127.277344 234.125 130.382812 231.097656 130.4375 227.316406 L 130.4375 147.152344 C 130.378906 143.375 127.269531 140.355469 123.480469 140.402344 " fill-opacity="1" fill-rule="nonzero"/></g><g clip-path="url(#fdaa8107b6)"><path fill="#000000" d="M 141.113281 221.960938 C 137.578125 221.996094 134.746094 224.882812 134.777344 228.410156 C 134.8125 231.9375 137.703125 234.769531 141.238281 234.738281 C 144.769531 234.703125 147.605469 231.8125 147.574219 228.285156 C 147.539062 224.808594 144.722656 221.996094 141.238281 221.960938 L 141.113281 221.960938 M 141.113281 234.003906 C 138.011719 234.058594 135.460938 231.589844 135.410156 228.5 C 135.355469 225.40625 137.828125 222.855469 140.921875 222.804688 C 144.023438 222.75 146.574219 225.21875 146.628906 228.308594 L 146.628906 228.402344 C 146.695312 231.425781 144.289062 233.933594 141.257812 234 L 141.113281 234 " fill-opacity="1" fill-rule="nonzero"/></g><g transform="matrix(1, 0, 0, 1, 145, 154)"><g clip-path="url(#4c5550ac81)"><g fill="#ffffff" fill-opacity="1"><g transform="translate(1.088075, 51.725344)"><g><path d="M 4.40625 0 L 4.40625 -34.984375 L 11.8125 -34.984375 L 11.8125 -6.125 L 26 -6.125 L 26 0 Z M 4.40625 0 "/></g></g></g><g fill="#ffffff" fill-opacity="1"><g transform="translate(28.765061, 51.725344)"><g><path d="M 3.515625 -33.65625 C 3.515625 -36.039062 4.835938 -37.234375 7.484375 -37.234375 C 10.128906 -37.234375 11.453125 -36.039062 11.453125 -33.65625 C 11.453125 -32.53125 11.117188 -31.648438 10.453125 -31.015625 C 9.796875 -30.390625 8.804688 -30.078125 7.484375 -30.078125 C 4.835938 -30.078125 3.515625 -31.269531 3.515625 -33.65625 Z M 11.125 0 L 3.828125 0 L 3.828125 -26.75 L 11.125 -26.75 Z M 11.125 0 "/></g></g></g><g fill="#ffffff" fill-opacity="1"><g transform="translate(43.7159, 51.725344)"><g><path d="M 28.515625 0 L 21.21875 0 L 21.21875 -15.625 C 21.21875 -17.550781 20.875 -18.992188 20.1875 -19.953125 C 19.507812 -20.921875 18.421875 -21.40625 16.921875 -21.40625 C 14.878906 -21.40625 13.398438 -20.722656 12.484375 -19.359375 C 11.578125 -18.003906 11.125 -15.742188 11.125 -12.578125 L 11.125 0 L 3.828125 0 L 3.828125 -26.75 L 9.40625 -26.75 L 10.390625 -23.328125 L 10.796875 -23.328125 C 11.609375 -24.617188 12.726562 -25.59375 14.15625 -26.25 C 15.582031 -26.914062 17.203125 -27.25 19.015625 -27.25 C 22.128906 -27.25 24.488281 -26.40625 26.09375 -24.71875 C 27.707031 -23.039062 28.515625 -20.613281 28.515625 -17.4375 Z M 28.515625 0 "/></g></g></g><g fill="#ffffff" fill-opacity="1"><g transform="translate(75.914008, 51.725344)"><g><path d="M 10.84375 -14.546875 L 14.015625 -18.609375 L 21.515625 -26.75 L 29.734375 -26.75 L 19.109375 -15.140625 L 30.390625 0 L 21.96875 0 L 14.265625 -10.84375 L 11.125 -8.328125 L 11.125 0 L 3.828125 0 L 3.828125 -37.234375 L 11.125 -37.234375 L 11.125 -20.625 L 10.75 -14.546875 Z M 10.84375 -14.546875 "/></g></g></g><g fill="#ffffff" fill-opacity="1"><g transform="translate(106.294095, 51.725344)"><g><path d="M 14.90625 -22.0625 C 13.351562 -22.0625 12.140625 -21.566406 11.265625 -20.578125 C 10.390625 -19.597656 9.890625 -18.207031 9.765625 -16.40625 L 20 -16.40625 C 19.96875 -18.207031 19.5 -19.597656 18.59375 -20.578125 C 17.6875 -21.566406 16.457031 -22.0625 14.90625 -22.0625 Z M 15.9375 0.484375 C 11.625 0.484375 8.253906 -0.703125 5.828125 -3.078125 C 3.410156 -5.460938 2.203125 -8.832031 2.203125 -13.1875 C 2.203125 -17.664062 3.320312 -21.128906 5.5625 -23.578125 C 7.800781 -26.023438 10.898438 -27.25 14.859375 -27.25 C 18.640625 -27.25 21.582031 -26.171875 23.6875 -24.015625 C 25.789062 -21.867188 26.84375 -18.894531 26.84375 -15.09375 L 26.84375 -11.5625 L 9.59375 -11.5625 C 9.675781 -9.488281 10.289062 -7.867188 11.4375 -6.703125 C 12.582031 -5.535156 14.191406 -4.953125 16.265625 -4.953125 C 17.878906 -4.953125 19.40625 -5.117188 20.84375 -5.453125 C 22.28125 -5.785156 23.78125 -6.320312 25.34375 -7.0625 L 25.34375 -1.40625 C 24.0625 -0.769531 22.691406 -0.296875 21.234375 0.015625 C 19.785156 0.328125 18.019531 0.484375 15.9375 0.484375 Z M 15.9375 0.484375 "/></g></g></g><g fill="#ffffff" fill-opacity="1"><g transform="translate(135.238902, 51.725344)"><g><path d="M 28.515625 0 L 21.21875 0 L 21.21875 -15.625 C 21.21875 -17.550781 20.875 -18.992188 20.1875 -19.953125 C 19.507812 -20.921875 18.421875 -21.40625 16.921875 -21.40625 C 14.878906 -21.40625 13.398438 -20.722656 12.484375 -19.359375 C 11.578125 -18.003906 11.125 -15.742188 11.125 -12.578125 L 11.125 0 L 3.828125 0 L 3.828125 -26.75 L 9.40625 -26.75 L 10.390625 -23.328125 L 10.796875 -23.328125 C 11.609375 -24.617188 12.726562 -25.59375 14.15625 -26.25 C 15.582031 -26.914062 17.203125 -27.25 19.015625 -27.25 C 22.128906 -27.25 24.488281 -26.40625 26.09375 -24.71875 C 27.707031 -23.039062 28.515625 -20.613281 28.515625 -17.4375 Z M 28.515625 0 "/></g></g></g><g fill="#ffffff" fill-opacity="1"><g transform="translate(167.43701, 51.725344)"><g><path d="M 12.296875 0.484375 C 9.148438 0.484375 6.679688 -0.734375 4.890625 -3.171875 C 3.097656 -5.617188 2.203125 -9.003906 2.203125 -13.328125 C 2.203125 -17.710938 3.113281 -21.128906 4.9375 -23.578125 C 6.769531 -26.023438 9.285156 -27.25 12.484375 -27.25 C 15.847656 -27.25 18.414062 -25.941406 20.1875 -23.328125 L 20.4375 -23.328125 C 20.0625 -25.316406 19.875 -27.09375 19.875 -28.65625 L 19.875 -37.234375 L 27.203125 -37.234375 L 27.203125 0 L 21.609375 0 L 20.1875 -3.46875 L 19.875 -3.46875 C 18.21875 -0.832031 15.691406 0.484375 12.296875 0.484375 Z M 14.859375 -5.328125 C 16.722656 -5.328125 18.085938 -5.867188 18.953125 -6.953125 C 19.828125 -8.046875 20.304688 -9.890625 20.390625 -12.484375 L 20.390625 -13.28125 C 20.390625 -16.144531 19.945312 -18.195312 19.0625 -19.4375 C 18.175781 -20.6875 16.734375 -21.3125 14.734375 -21.3125 C 13.109375 -21.3125 11.84375 -20.617188 10.9375 -19.234375 C 10.039062 -17.859375 9.59375 -15.859375 9.59375 -13.234375 C 9.59375 -10.597656 10.046875 -8.617188 10.953125 -7.296875 C 11.867188 -5.984375 13.171875 -5.328125 14.859375 -5.328125 Z M 14.859375 -5.328125 "/></g></g></g></g></g></svg>