<svg xmlns="http://www.w3.org/2000/svg" xmlns:xlink="http://www.w3.org/1999/xlink" width="500" zoomAndPan="magnify" viewBox="0 0 375 374.999991" height="500" preserveAspectRatio="xMidYMid meet" version="1.0"><defs><g/><clipPath id="cebd22b38d"><path d="M 0 113.34375 L 375 113.34375 L 375 261.65625 L 0 261.65625 Z M 0 113.34375 " clip-rule="nonzero"/></clipPath><clipPath id="019e65ec68"><path d="M 38.25 113.34375 L 336.75 113.34375 C 357.875 113.34375 375 130.46875 375 151.59375 L 375 223.40625 C 375 244.53125 357.875 261.65625 336.75 261.65625 L 38.25 261.65625 C 17.125 261.65625 0 244.53125 0 223.40625 L 0 151.59375 C 0 130.46875 17.125 113.34375 38.25 113.34375 Z M 38.25 113.34375 " clip-rule="nonzero"/></clipPath><clipPath id="4229414bfa"><path d="M 0 0.34375 L 375 0.34375 L 375 148.65625 L 0 148.65625 Z M 0 0.34375 " clip-rule="nonzero"/></clipPath><clipPath id="123308d0c4"><path d="M 38.25 0.34375 L 336.75 0.34375 C 357.875 0.34375 375 17.46875 375 38.59375 L 375 110.40625 C 375 131.53125 357.875 148.65625 336.75 148.65625 L 38.25 148.65625 C 17.125 148.65625 0 131.53125 0 110.40625 L 0 38.59375 C 0 17.46875 17.125 0.34375 38.25 0.34375 Z M 38.25 0.34375 " clip-rule="nonzero"/></clipPath><clipPath id="3ecb82cd24"><rect x="0" width="375" y="0" height="149"/></clipPath><clipPath id="e5aa563005"><path d="M 27.925781 135.375 L 132.175781 135.375 L 132.175781 240.375 L 27.925781 240.375 Z M 27.925781 135.375 " clip-rule="nonzero"/></clipPath><clipPath id="f8305c83a3"><path d="M 0.519531 13 L 41 13 L 41 44 L 0.519531 44 Z M 0.519531 13 " clip-rule="nonzero"/></clipPath><clipPath id="aa2d102beb"><rect x="0" width="213" y="0" height="57"/></clipPath></defs><g clip-path="url(#cebd22b38d)"><g clip-path="url(#019e65ec68)"><g transform="matrix(1, 0, 0, 1, 0, 113)"><g clip-path="url(#3ecb82cd24)"><g clip-path="url(#4229414bfa)"><g clip-path="url(#123308d0c4)"><path fill="#00a210" d="M 0 0.34375 L 374.835938 0.34375 L 374.835938 148.65625 L 0 148.65625 Z M 0 0.34375 " fill-opacity="1" fill-rule="nonzero"/></g></g></g></g></g></g><g clip-path="url(#e5aa563005)"><path fill="#000000" d="M 116.976562 150.675781 C 107.175781 140.851562 94.148438 135.429688 80.261719 135.429688 C 51.65625 135.429688 28.371094 158.746094 28.359375 187.414062 C 28.359375 196.574219 30.746094 205.523438 35.289062 213.402344 L 27.925781 240.34375 L 55.441406 233.109375 C 63.023438 237.253906 71.558594 239.433594 80.242188 239.441406 L 80.261719 239.441406 C 108.867188 239.441406 132.15625 216.117188 132.160156 187.457031 C 132.160156 173.5625 126.773438 160.507812 116.96875 150.675781 Z M 80.261719 230.664062 L 80.246094 230.664062 C 72.511719 230.664062 64.914062 228.578125 58.289062 224.640625 L 56.714844 223.699219 L 40.386719 227.992188 L 44.742188 212.042969 L 43.714844 210.410156 C 39.394531 203.53125 37.117188 195.578125 37.121094 187.414062 C 37.132812 163.59375 56.488281 144.207031 80.277344 144.207031 C 91.800781 144.207031 102.628906 148.710938 110.777344 156.878906 C 118.921875 165.046875 123.402344 175.902344 123.398438 187.449219 C 123.386719 211.277344 104.035156 230.664062 80.257812 230.664062 Z M 103.925781 198.300781 C 102.628906 197.652344 96.253906 194.511719 95.0625 194.078125 C 93.871094 193.644531 93.011719 193.429688 92.148438 194.726562 C 91.28125 196.03125 88.796875 198.957031 88.042969 199.824219 C 87.285156 200.6875 86.527344 200.796875 85.230469 200.144531 C 83.933594 199.496094 79.753906 198.121094 74.800781 193.695312 C 70.945312 190.25 68.339844 185.996094 67.585938 184.695312 C 66.828125 183.394531 67.507812 182.695312 68.15625 182.046875 C 68.734375 181.464844 69.449219 180.523438 70.101562 179.769531 C 70.75 179.011719 70.964844 178.464844 71.394531 177.597656 C 71.832031 176.734375 71.613281 175.976562 71.289062 175.320312 C 70.960938 174.671875 68.371094 168.277344 67.289062 165.679688 C 66.238281 163.148438 65.167969 163.488281 64.375 163.449219 C 63.617188 163.410156 62.753906 163.402344 61.886719 163.402344 C 61.023438 163.402344 59.621094 163.722656 58.429688 165.023438 C 57.238281 166.328125 53.890625 169.46875 53.890625 175.863281 C 53.890625 182.253906 58.539062 188.429688 59.191406 189.300781 C 59.835938 190.167969 68.335938 203.289062 81.34375 208.917969 C 84.4375 210.253906 86.855469 211.054688 88.742188 211.65625 C 91.847656 212.644531 94.675781 212.507812 96.90625 212.167969 C 99.398438 211.796875 104.578125 209.023438 105.660156 205.992188 C 106.742188 202.957031 106.742188 200.355469 106.414062 199.8125 C 106.089844 199.265625 105.222656 198.945312 103.929688 198.292969 Z M 103.925781 198.300781 " fill-opacity="1" fill-rule="evenodd"/></g><g transform="matrix(1, 0, 0, 1, 143, 159)"><g clip-path="url(#aa2d102beb)"><g clip-path="url(#f8305c83a3)"><g fill="#ffffff" fill-opacity="1"><g transform="translate(0.829668, 43.253097)"><g><path d="M 32.421875 0 L 25.3125 0 L 21.3125 -15.484375 C 21.164062 -16.035156 20.910156 -17.175781 20.546875 -18.90625 C 20.191406 -20.632812 19.988281 -21.789062 19.9375 -22.375 C 19.863281 -21.65625 19.664062 -20.488281 19.34375 -18.875 C 19.019531 -17.269531 18.769531 -16.128906 18.59375 -15.453125 L 14.625 0 L 7.515625 0 L 0 -29.484375 L 6.15625 -29.484375 L 9.921875 -13.390625 C 10.578125 -10.421875 11.054688 -7.847656 11.359375 -5.671875 C 11.429688 -6.429688 11.613281 -7.613281 11.90625 -9.21875 C 12.195312 -10.832031 12.46875 -12.082031 12.71875 -12.96875 L 17.015625 -29.484375 L 22.921875 -29.484375 L 27.21875 -12.96875 C 27.40625 -12.226562 27.640625 -11.097656 27.921875 -9.578125 C 28.203125 -8.054688 28.421875 -6.753906 28.578125 -5.671875 C 28.710938 -6.710938 28.925781 -8.015625 29.21875 -9.578125 C 29.507812 -11.148438 29.78125 -12.421875 30.03125 -13.390625 L 33.78125 -29.484375 L 39.921875 -29.484375 Z M 32.421875 0 "/></g></g></g></g><g fill="#ffffff" fill-opacity="1"><g transform="translate(40.745703, 43.253097)"><g><path d="M 24.03125 0 L 17.890625 0 L 17.890625 -13.171875 C 17.890625 -16.421875 16.675781 -18.046875 14.25 -18.046875 C 12.53125 -18.046875 11.285156 -17.457031 10.515625 -16.28125 C 9.753906 -15.113281 9.375 -13.222656 9.375 -10.609375 L 9.375 0 L 3.21875 0 L 3.21875 -31.375 L 9.375 -31.375 L 9.375 -24.984375 C 9.375 -24.484375 9.328125 -23.3125 9.234375 -21.46875 L 9.09375 -19.65625 L 9.421875 -19.65625 C 10.785156 -21.863281 12.960938 -22.96875 15.953125 -22.96875 C 18.597656 -22.96875 20.601562 -22.253906 21.96875 -20.828125 C 23.34375 -19.398438 24.03125 -17.359375 24.03125 -14.703125 Z M 24.03125 0 "/></g></g></g><g fill="#ffffff" fill-opacity="1"><g transform="translate(67.880542, 43.253097)"><g><path d="M 17.546875 0 L 16.359375 -3.0625 L 16.1875 -3.0625 C 15.15625 -1.757812 14.09375 -0.851562 13 -0.34375 C 11.90625 0.15625 10.476562 0.40625 8.71875 0.40625 C 6.550781 0.40625 4.84375 -0.210938 3.59375 -1.453125 C 2.351562 -2.691406 1.734375 -4.453125 1.734375 -6.734375 C 1.734375 -9.128906 2.566406 -10.894531 4.234375 -12.03125 C 5.910156 -13.164062 8.4375 -13.789062 11.8125 -13.90625 L 15.734375 -14.03125 L 15.734375 -15.015625 C 15.734375 -17.304688 14.5625 -18.453125 12.21875 -18.453125 C 10.414062 -18.453125 8.300781 -17.90625 5.875 -16.8125 L 3.828125 -20.96875 C 6.421875 -22.320312 9.300781 -23 12.46875 -23 C 15.488281 -23 17.804688 -22.34375 19.421875 -21.03125 C 21.035156 -19.71875 21.84375 -17.710938 21.84375 -15.015625 L 21.84375 0 Z M 15.734375 -10.4375 L 13.34375 -10.359375 C 11.5625 -10.304688 10.234375 -9.984375 9.359375 -9.390625 C 8.484375 -8.804688 8.046875 -7.90625 8.046875 -6.6875 C 8.046875 -4.957031 9.039062 -4.09375 11.03125 -4.09375 C 12.457031 -4.09375 13.597656 -4.5 14.453125 -5.3125 C 15.304688 -6.132812 15.734375 -7.226562 15.734375 -8.59375 Z M 15.734375 -10.4375 "/></g></g></g><g fill="#ffffff" fill-opacity="1"><g transform="translate(92.817993, 43.253097)"><g><path d="M 12.71875 -4.5 C 13.800781 -4.5 15.09375 -4.734375 16.59375 -5.203125 L 16.59375 -0.625 C 15.0625 0.0625 13.179688 0.40625 10.953125 0.40625 C 8.492188 0.40625 6.703125 -0.210938 5.578125 -1.453125 C 4.453125 -2.703125 3.890625 -4.570312 3.890625 -7.0625 L 3.890625 -17.921875 L 0.953125 -17.921875 L 0.953125 -20.53125 L 4.328125 -22.578125 L 6.109375 -27.34375 L 10.046875 -27.34375 L 10.046875 -22.546875 L 16.359375 -22.546875 L 16.359375 -17.921875 L 10.046875 -17.921875 L 10.046875 -7.0625 C 10.046875 -6.1875 10.289062 -5.539062 10.78125 -5.125 C 11.269531 -4.707031 11.914062 -4.5 12.71875 -4.5 Z M 12.71875 -4.5 "/></g></g></g><g fill="#ffffff" fill-opacity="1"><g transform="translate(110.739898, 43.253097)"><g><path d="M 18.953125 -6.6875 C 18.953125 -4.375 18.148438 -2.613281 16.546875 -1.40625 C 14.941406 -0.195312 12.539062 0.40625 9.34375 0.40625 C 7.695312 0.40625 6.296875 0.289062 5.140625 0.0625 C 3.984375 -0.15625 2.898438 -0.476562 1.890625 -0.90625 L 1.890625 -5.984375 C 3.035156 -5.453125 4.320312 -5.003906 5.75 -4.640625 C 7.1875 -4.273438 8.445312 -4.09375 9.53125 -4.09375 C 11.769531 -4.09375 12.890625 -4.738281 12.890625 -6.03125 C 12.890625 -6.507812 12.738281 -6.898438 12.4375 -7.203125 C 12.144531 -7.503906 11.632812 -7.847656 10.90625 -8.234375 C 10.175781 -8.617188 9.207031 -9.066406 8 -9.578125 C 6.269531 -10.304688 5 -10.976562 4.1875 -11.59375 C 3.375 -12.207031 2.78125 -12.914062 2.40625 -13.71875 C 2.039062 -14.519531 1.859375 -15.503906 1.859375 -16.671875 C 1.859375 -18.679688 2.632812 -20.234375 4.1875 -21.328125 C 5.738281 -22.421875 7.9375 -22.96875 10.78125 -22.96875 C 13.5 -22.96875 16.144531 -22.375 18.71875 -21.1875 L 16.859375 -16.75 C 15.722656 -17.238281 14.664062 -17.632812 13.6875 -17.9375 C 12.707031 -18.25 11.707031 -18.40625 10.6875 -18.40625 C 8.875 -18.40625 7.96875 -17.914062 7.96875 -16.9375 C 7.96875 -16.382812 8.257812 -15.90625 8.84375 -15.5 C 9.425781 -15.101562 10.707031 -14.507812 12.6875 -13.71875 C 14.445312 -13 15.734375 -12.328125 16.546875 -11.703125 C 17.367188 -11.085938 17.972656 -10.378906 18.359375 -9.578125 C 18.753906 -8.773438 18.953125 -7.8125 18.953125 -6.6875 Z M 18.953125 -6.6875 "/></g></g></g><g fill="#ffffff" fill-opacity="1"><g transform="translate(131.262384, 43.253097)"><g><path d="M 21.75 0 L 19.625 -7.015625 L 8.875 -7.015625 L 6.734375 0 L 0 0 L 10.40625 -29.59375 L 18.046875 -29.59375 L 28.5 0 Z M 18.125 -12.265625 C 16.144531 -18.617188 15.03125 -22.210938 14.78125 -23.046875 C 14.539062 -23.878906 14.363281 -24.539062 14.25 -25.03125 C 13.8125 -23.300781 12.539062 -19.046875 10.4375 -12.265625 Z M 18.125 -12.265625 "/></g></g></g><g fill="#ffffff" fill-opacity="1"><g transform="translate(159.747926, 43.253097)"><g><path d="M 15.609375 0.40625 C 12.960938 0.40625 10.882812 -0.554688 9.375 -2.484375 L 9.046875 -2.484375 C 9.265625 -0.597656 9.375 0.488281 9.375 0.78125 L 9.375 9.921875 L 3.21875 9.921875 L 3.21875 -22.546875 L 8.234375 -22.546875 L 9.09375 -19.625 L 9.375 -19.625 C 10.8125 -21.851562 12.941406 -22.96875 15.765625 -22.96875 C 18.429688 -22.96875 20.515625 -21.9375 22.015625 -19.875 C 23.523438 -17.820312 24.28125 -14.96875 24.28125 -11.3125 C 24.28125 -8.90625 23.925781 -6.8125 23.21875 -5.03125 C 22.507812 -3.257812 21.503906 -1.910156 20.203125 -0.984375 C 18.898438 -0.0546875 17.367188 0.40625 15.609375 0.40625 Z M 13.796875 -18.046875 C 12.273438 -18.046875 11.164062 -17.578125 10.46875 -16.640625 C 9.769531 -15.710938 9.40625 -14.171875 9.375 -12.015625 L 9.375 -11.359375 C 9.375 -8.929688 9.734375 -7.191406 10.453125 -6.140625 C 11.171875 -5.097656 12.3125 -4.578125 13.875 -4.578125 C 16.625 -4.578125 18 -6.847656 18 -11.390625 C 18 -13.609375 17.660156 -15.269531 16.984375 -16.375 C 16.304688 -17.488281 15.242188 -18.046875 13.796875 -18.046875 Z M 13.796875 -18.046875 "/></g></g></g><g fill="#ffffff" fill-opacity="1"><g transform="translate(185.874785, 43.253097)"><g><path d="M 15.609375 0.40625 C 12.960938 0.40625 10.882812 -0.554688 9.375 -2.484375 L 9.046875 -2.484375 C 9.265625 -0.597656 9.375 0.488281 9.375 0.78125 L 9.375 9.921875 L 3.21875 9.921875 L 3.21875 -22.546875 L 8.234375 -22.546875 L 9.09375 -19.625 L 9.375 -19.625 C 10.8125 -21.851562 12.941406 -22.96875 15.765625 -22.96875 C 18.429688 -22.96875 20.515625 -21.9375 22.015625 -19.875 C 23.523438 -17.820312 24.28125 -14.96875 24.28125 -11.3125 C 24.28125 -8.90625 23.925781 -6.8125 23.21875 -5.03125 C 22.507812 -3.257812 21.503906 -1.910156 20.203125 -0.984375 C 18.898438 -0.0546875 17.367188 0.40625 15.609375 0.40625 Z M 13.796875 -18.046875 C 12.273438 -18.046875 11.164062 -17.578125 10.46875 -16.640625 C 9.769531 -15.710938 9.40625 -14.171875 9.375 -12.015625 L 9.375 -11.359375 C 9.375 -8.929688 9.734375 -7.191406 10.453125 -6.140625 C 11.171875 -5.097656 12.3125 -4.578125 13.875 -4.578125 C 16.625 -4.578125 18 -6.847656 18 -11.390625 C 18 -13.609375 17.660156 -15.269531 16.984375 -16.375 C 16.304688 -17.488281 15.242188 -18.046875 13.796875 -18.046875 Z M 13.796875 -18.046875 "/></g></g></g></g></g></svg>